<?xml version="1.0" encoding="UTF-8"?>
<svg xmlns="http://www.w3.org/2000/svg" viewBox="0 0 583.45 507.55">
  <defs>
    <style>
      .cls-1 {
        fill: #ffc800;
      }

      .cls-1, .cls-2, .cls-3, .cls-4, .cls-5, .cls-6, .cls-7, .cls-8, .cls-9 {
        stroke-width: 0px;
      }

      .cls-2 {
        fill: #ffd1e8;
      }

      .cls-3 {
        fill: #def7f2;
      }

      .cls-4 {
        fill: #4d3722;
      }

      .cls-5 {
        fill: #ff0081;
      }

      .cls-6 {
        fill: #4d0027;
      }

      .cls-10 {
        mix-blend-mode: multiply;
      }

      .cls-11 {
        isolation: isolate;
      }

      .cls-7 {
        fill: #00ff80;
      }

      .cls-8 {
        fill: #d99c5f;
      }

      .cls-9 {
        fill: #08f;
      }
    </style>
  </defs>
  <g class="cls-11">
    <g id="Layer_2" data-name="Layer 2">
      <g id="Layer_1-2" data-name="Layer 1">
        <path class="cls-8" d="M484.21,186.49C461.32,69.21,353.99-8.54,244.5,12.83c-109.5,21.37-179.7,133.78-156.81,251.07,22.89,117.29,130.22,195.04,239.72,173.66,109.5-21.37,179.7-133.78,156.81-251.07ZM313.17,216.6l-15.85,68.71-61.3-60.12,54.07-69.87,23.08,61.28Z"/>
        <path class="cls-4" d="M280.96,23.29c43.42,0,86.33,16.38,120.84,46.13,17.22,14.85,31.85,32.5,43.47,52.47,12.05,20.7,20.53,43.34,25.21,67.29,5.26,26.93,5.44,54.01.53,80.47-4.73,25.5-13.95,49.37-27.42,70.93-27.54,44.09-69.75,73.66-118.86,83.24-11.14,2.17-22.5,3.28-33.77,3.28-43.42,0-86.34-16.38-120.84-46.13-17.22-14.85-31.85-32.5-43.47-52.47-12.05-20.71-20.53-43.34-25.21-67.29-5.26-26.93-5.44-54.01-.53-80.47,4.73-25.5,13.95-49.37,27.42-70.93,27.54-44.09,69.75-73.66,118.86-83.24,11.13-2.17,22.49-3.27,33.78-3.28h0M280.95,9.29c-12.04,0-24.24,1.15-36.45,3.54-109.5,21.37-179.7,133.78-156.81,251.07,20.34,104.21,107.32,177.2,203.27,177.2,12.04,0,24.24-1.15,36.45-3.54,109.5-21.37,179.7-133.78,156.81-251.07C463.87,82.29,376.89,9.29,280.95,9.29h0Z"/>
        <g class="cls-10">
          <path class="cls-3" d="M297.01,382.8c-31.33-10.78-41.26-42.82-59.02-57.34-29.59-24.2-60.18-31.56-68.63-55.49-11.57-32.79,7.09-65.34,4.57-85.25-7.71-60.88-14.52-118.61,58.01-168.98,1.48-1.02-5.83-1.56-19.09-1.65-15.14,6.47-27.66,14.89-42.62,25.35-38.35,26.78-37.64,48.02-54.07,81.95-19.78,40.85,3.15,63.08,10.5,100.72,4.82,24.7-14.35,63.23-2.82,84.62,13.5,25.04,39.88,20.86,59.15,40.14,21.13,21.13,12.22,64.9,42.5,82.5,35.84,20.83,94.34,12.86,127.42,1.91,62.3-20.62,119.18-83.99,136.42-162.34,2.74-18.19,4.42-31.92,5.1-38.93.07-1.59.12-3.19.16-4.79-25.24,101.72-114.07,186.32-197.6,157.57Z"/>
        </g>
        <g>
          <path class="cls-5" d="M304.6,184.72c.06.12.13.24.19.37-.06-.12-.13-.24-.19-.37Z"/>
          <path class="cls-5" d="M306.71,189.3c.07.17.14.33.21.5-.07-.17-.14-.33-.21-.5Z"/>
          <path class="cls-5" d="M289.96,164.26s-.02-.02-.03-.03c0,0,.02.02.03.03Z"/>
          <path class="cls-5" d="M305.68,186.97c.07.14.14.28.2.43-.07-.15-.14-.28-.2-.43Z"/>
          <path class="cls-5" d="M301.14,178.54c.04.07.09.14.13.21-.04-.07-.09-.14-.13-.21Z"/>
          <path class="cls-5" d="M302.32,180.51c.05.09.1.17.15.26-.05-.09-.1-.17-.15-.26Z"/>
          <path class="cls-5" d="M303.47,182.57c.06.11.12.21.17.31-.06-.11-.12-.21-.17-.31Z"/>
          <path class="cls-5" d="M299.94,176.65c.04.06.08.12.12.18-.04-.06-.08-.12-.12-.18Z"/>
          <path class="cls-5" d="M307.69,191.74c.07.18.15.36.21.55-.07-.19-.14-.36-.21-.55Z"/>
          <path class="cls-5" d="M310.83,202.3c.06.3.14.59.2.89-.06-.3-.13-.59-.2-.89Z"/>
          <path class="cls-5" d="M311.85,208.16c.04.33.1.66.14.99-.04-.34-.09-.66-.14-.99Z"/>
          <path class="cls-5" d="M312.21,211.41c.02.29.06.57.08.86-.02-.29-.06-.57-.08-.86Z"/>
          <path class="cls-5" d="M311.39,205.15c.06.33.12.64.18.97-.05-.33-.12-.65-.18-.97Z"/>
          <path class="cls-5" d="M308.6,194.25c.07.21.15.42.22.63-.07-.21-.15-.42-.22-.63Z"/>
          <path class="cls-5" d="M310.18,199.55c.07.26.14.51.21.78-.07-.26-.14-.52-.21-.78Z"/>
          <path class="cls-5" d="M309.43,196.86c.07.23.15.46.22.7-.07-.24-.15-.46-.22-.7Z"/>
          <path class="cls-5" d="M291.87,166.27s.02.02.03.04c-.01-.01-.02-.02-.03-.04Z"/>
          <path class="cls-5" d="M287.59,161.97s.03.03.05.04c-.02-.01-.03-.03-.05-.04Z"/>
          <path class="cls-5" d="M288.28,162.62s.02.02.03.03c-.01-.01-.02-.02-.03-.03Z"/>
          <path class="cls-5" d="M287.01,161.45s.03.03.05.05c-.02-.02-.03-.03-.05-.05Z"/>
          <path class="cls-5" d="M298.75,174.88s.06.09.1.13c-.03-.05-.06-.09-.1-.13Z"/>
          <path class="cls-5" d="M490.51,177.37C467.62,60.08,365.81-12.35,260.83,1.75c-43.45,5.83-62.79,18.28-90.61,37.7-38.35,26.78-37.64,48.02-54.07,81.95-19.78,40.85,3.15,63.08,10.5,100.72,4.82,24.7-14.35,63.23-2.82,84.62,13.5,25.04,39.88,20.86,59.15,40.14,21.13,21.13,12.22,64.9,42.5,82.5,35.84,20.83,94.34,12.86,127.42,1.91,85.32-28.24,160.48-136.64,137.59-253.92ZM327.24,278.57c-11.45,1.91-22.08-.24-31.2-5.17-15.2-8.23-26.22-24.22-29.85-42.14-5.51-27.15.27-56.57,19.78-70.69,0,0-.02-.01-.02-.01,0,0,11.23-6.37,18.32-7.65,19.3-3.46,42.5.32,41.29,12.72-.84,8.51,3.92,39.66,6.49,46.9,4.27,12.02,5.46,32.35,8.26,45.42,3.98,18.59-23.3,19-33.07,20.63Z"/>
          <path class="cls-5" d="M286.54,161.04s.04.03.05.05c-.02-.02-.04-.03-.05-.05Z"/>
          <path class="cls-5" d="M286.19,160.74s.04.03.06.05c-.03-.02-.04-.03-.06-.05Z"/>
          <path class="cls-5" d="M289.07,163.37s.02.02.02.02c0,0-.02-.02-.02-.02Z"/>
          <path class="cls-5" d="M285.97,160.56s.04.03.07.05c-.04-.03-.06-.05-.07-.05Z"/>
          <path class="cls-5" d="M296.35,171.61s.05.06.07.09c-.02-.03-.05-.06-.07-.09Z"/>
          <path class="cls-5" d="M297.54,173.19s.06.08.09.12c-.03-.04-.06-.08-.09-.12Z"/>
          <path class="cls-5" d="M295.18,170.13s.03.04.05.06c-.02-.02-.03-.04-.05-.06Z"/>
          <path class="cls-5" d="M290.87,165.2s.02.02.03.03c0-.01-.02-.02-.03-.03Z"/>
          <path class="cls-5" d="M292.93,167.45s.03.03.04.04c-.01-.02-.03-.03-.04-.04Z"/>
          <path class="cls-5" d="M294.03,168.73s.03.04.05.06c-.02-.02-.03-.04-.05-.06Z"/>
        </g>
        <g>
          <path class="cls-2" d="M431.96,103.43c-27.36-41.85-71.12-70.42-117.04-76.45-7.4-.96-14.17,4.24-15.14,11.63-.97,7.39,4.24,14.17,11.63,15.14,38.22,5.01,74.84,29.11,97.95,64.45,2.59,3.96,6.91,6.11,11.31,6.11,2.53,0,5.1-.71,7.38-2.2,6.24-4.08,7.99-12.45,3.91-18.69Z"/>
          <path class="cls-2" d="M277.74,25.17c-12.53,0-34.45,4.08-43.95,9.34-6.52,3.61-8.88,11.83-5.26,18.35,2.47,4.45,7.07,6.96,11.82,6.96,2.21,0,4.46-.55,6.53-1.7,3.95-2.19,20.68-5.96,30.86-5.96,7.46,0,13.5-6.04,13.5-13.5s-6.04-13.5-13.5-13.5Z"/>
        </g>
        <path class="cls-4" d="M290.09,269.7c7.6-12.28,14.38-25.36,15.33-39.92.39-4.69.31-9.98.16-14.72-.56-18.23-9.36-35.9-22.65-48.29l7.16-11.44c8.67,7.34,15.54,16.55,20.68,26.66,5.7,11.2,8.58,23.94,8.59,36.56.16,6.86-.04,13.89-1.28,20.7-2.5,13.67-8.97,26.2-16.1,37.84l-11.89-7.38Z"/>
      </g>
      <g id="Layer_2-2" data-name="Layer 2">
        <g>
          <path class="cls-6" d="M269.26,167.97c-11.11,16.37-14.83,40.54-9.93,64.68,3.26,16.06,11.66,30.38,23.66,40.32,10.52,8.71,23.07,13.29,36.09,13.29,3.08,0,6.2-.26,9.31-.78l.35-.06c10.43-1.73,32.12-5.34,38.26-25.43,5.21-17.06-.1-25.82-5.23-34.28-2.94-4.85-5.72-9.43-7.13-16.38-.93-4.57-.19-9.15.68-14.44,1.43-8.78,3.21-19.7-3.57-32.52-7.35-13.92-26.48-20.33-48.71-16.34-14.06,2.52-25.74,10.12-33.78,21.96ZM305.51,159.79c15.88-2.85,29.48.81,33.86,9.1,4.58,8.67,3.45,15.65,2.13,23.73-.99,6.1-2.02,12.4-.58,19.48,1.9,9.34,5.77,15.72,8.88,20.85,4.49,7.4,7.19,11.86,3.81,22.93-3.32,10.88-15.77,13.81-27.17,15.71l-.35.06c-2.14.36-4.32.54-6.54.54-19.41,0-40.71-13.78-46.5-42.34-4.16-20.52-1.25-40.71,7.79-54.03,5.96-8.77,14.26-14.17,24.67-16.04Z"/>
          <path class="cls-6" d="M107.96,228.06c-28.36-10.32-49.6-10.85-64.94-1.62-11.31,6.81-18.8,18.7-22.78,36.13-11.61,2.77-20.24,13.2-20.24,25.66,0,14.57,11.81,26.39,26.39,26.39s26.39-11.81,26.39-26.39c0-9.58-5.1-17.96-12.74-22.59,2.69-11.15,7.01-18.28,13.31-22.07,9.69-5.84,25.77-4.73,47.79,3.28,5.19,1.89,10.93-.79,12.82-5.98,1.89-5.19-.79-10.93-5.98-12.82Z"/>
          <path class="cls-6" d="M562.49,183.84c-14.26-3-28.25,6.13-31.25,20.39-1.97,9.37,1.3,18.63,7.82,24.72-4.93,10.36-10.62,16.45-17.56,18.86-7.22,2.51-16.64,1.31-28.12-3.54,2.32-21.62,1.59-44.09-2.86-66.91C469.52,69.83,382.2,0,286.91,0v14h0c43.6,0,86.42,15.99,120.6,45.03,17.29,14.69,31.98,32.29,43.64,52.31,12.18,20.91,20.81,44.03,25.62,68.71,21.44,109.85-49,211.72-128.25,237.95-19.6,6.49-43.78,10.36-64.69,10.36s-38.82-3.83-51.3-11.08c-11.93-6.94-15.52-20.93-19.67-37.14-3.93-15.33-7.99-31.19-19.97-43.16-10.35-10.35-21.87-15.05-32.04-19.2-12.4-5.06-19.67-8.37-24.69-17.69-4.14-7.68-1.2-23.6,1.39-37.63,2.69-14.55,5.47-29.59,2.85-43.02-2.65-13.57-7.83-25.83-12.84-37.68-9.64-22.81-17.25-40.82-6.23-62.39,10.5-20.55,28.88-49.1,56.84-68.4,28.38-19.58,45.02-30.05,84.52-35.35,8.01-1.07,16.15-1.62,24.2-1.62V0s0,0,0,0c-8.63,0-17.34.57-26.06,1.75-43.45,5.83-62.68,18.43-90.61,37.7-29.05,20.05-48.8,48.97-61.36,73.55-20.64,40.42,10.45,71.47,17.8,109.12,4.82,24.7-14.35,63.23-2.82,84.62,13.5,25.04,39.88,20.86,59.16,40.14,21.13,21.13,12.22,64.9,42.5,82.5,16.27,9.46,37.21,12.98,58.33,12.98,25.39,0,51.03-5.09,69.09-11.07,19.29-6.39,38.06-16.88,55.3-30.64,7.61,3.97,12.71,8.34,15.22,13.1,5.24,9.91-.13,23.61-6.35,39.48-.53,1.35-1.06,2.7-1.59,4.07-1.24,3.2-.75,6.82,1.3,9.58,1.9,2.55,4.88,4.04,8.03,4.04.26,0,.52,0,.77-.03.19-.01,19.38-1.48,32.05-1.36.04,0,.07,0,.11,0,5.47,0,9.94-4.41,10-9.9.06-5.52-4.37-10.05-9.89-10.1-5.61-.06-12.22.16-18.11.45,5.55-15.37,9.13-30.92,1.38-45.57-3.54-6.7-9.18-12.55-17.13-17.68,31.94-31.09,56.64-73.93,66.27-122.2,8.32,3.04,16.02,4.58,23.13,4.58,5.18,0,10.06-.8,14.66-2.4,12.47-4.34,22.25-14.43,29.73-30.68,11.93-.32,22.53-8.75,25.09-20.95,3-14.26-6.13-28.25-20.39-31.25Z"/>
          <path class="cls-6" d="M185.29,381.9c-5.47.73-9.32,5.76-8.59,11.24,3.85,28.77,1.93,47.7-5.7,56.27-7.46,8.38-22.17,8.13-39.21,7.85-1.45-.02-2.9-.05-4.36-.07-.04,0-.09,0-.13,0-3.39,0-6.55,1.72-8.39,4.56-1.87,2.88-2.12,6.53-.68,9.64.08.17,8.17,17.65,12.47,29.55,1.47,4.07,5.31,6.61,9.41,6.61,1.13,0,2.27-.19,3.4-.6,5.19-1.88,7.88-7.61,6.01-12.8-1.9-5.27-4.43-11.4-6.75-16.81,16.34-.17,32.16-2.25,43.18-14.64,12-13.49,15.36-36.43,10.58-72.22-.73-5.47-5.77-9.31-11.24-8.59Z"/>
          <ellipse class="cls-6" cx="400.71" cy="295.82" rx="8.03" ry="9.75"/>
          <ellipse class="cls-6" cx="352.05" cy="310.95" rx="9.22" ry="11.2"/>
          <path class="cls-6" d="M400.71,315.66c-2.96-1.05-35.87,10.06-36.08,12.16-.21,2.1,6.29,14.67,22.64,8.59,14.6-5.43,16.39-19.7,13.44-20.75Z"/>
        </g>
      </g>
      <g id="Layer_3" data-name="Layer 3">
        <g>
          <rect class="cls-7" x="195.3" y="203.11" width="44.68" height="13.09" rx="6.54" ry="6.54" transform="translate(147.61 -84.31) rotate(32.67)"/>
          <rect class="cls-7" x="317.75" y="359.23" width="44.68" height="13.09" rx="6.54" ry="6.54" transform="translate(826.89 254.14) rotate(120)"/>
          <rect class="cls-7" x="300.99" y="93.88" width="44.68" height="13.09" rx="6.54" ry="6.54" transform="translate(310.33 -237.89) rotate(70.55)"/>
          <rect class="cls-7" x="416" y="277.55" width="44.68" height="13.09" rx="6.54" ry="6.54" transform="translate(895.14 537.42) rotate(176.06)"/>
          <rect class="cls-9" x="211.2" y="279.53" width="44.68" height="13.09" rx="6.54" ry="6.54" transform="translate(575.34 146.26) rotate(106.98)"/>
          <rect class="cls-9" x="411.94" y="142.28" width="44.68" height="13.09" rx="6.54" ry="6.54" transform="translate(254.73 -273.68) rotate(48.06)"/>
          <rect class="cls-9" x="224.24" y="137.22" width="44.68" height="13.09" rx="6.54" ry="6.54" transform="translate(-31.1 77.73) rotate(-16.87)"/>
          <rect class="cls-1" x="397.56" y="205.98" width="44.68" height="13.09" rx="6.54" ry="6.54" transform="translate(787.08 506.88) rotate(-168.13)"/>
          <rect class="cls-1" x="195.3" y="78.21" width="44.68" height="13.09" rx="6.54" ry="6.54" transform="translate(442.89 146.48) rotate(174.05)"/>
          <rect class="cls-1" x="360.93" y="128.96" width="44.68" height="13.09" rx="6.54" ry="6.54" transform="translate(750.1 -39.7) rotate(135)"/>
          <rect class="cls-1" x="236.7" y="339.16" width="44.68" height="13.09" rx="6.54" ry="6.54" transform="translate(290.48 776.54) rotate(-147.33)"/>
        </g>
      </g>
    </g>
  </g>
</svg>