<?xml version="1.0" encoding="UTF-8"?>
<svg id="Layer_2" data-name="Layer 2" xmlns="http://www.w3.org/2000/svg" viewBox="0 0 411.31 663.88">
  <defs>
    <style>
      .cls-1 {
        fill: #4d0027;
      }

      .cls-1, .cls-2, .cls-3, .cls-4, .cls-5, .cls-6, .cls-7, .cls-8, .cls-9, .cls-10 {
        stroke-width: 0px;
      }

      .cls-2 {
        fill: #4d3722;
      }

      .cls-3 {
        fill: #e00d77;
      }

      .cls-4 {
        fill: #d99c5f;
      }

      .cls-5 {
        fill: #916a43;
      }

      .cls-6 {
        fill: #ff0081;
      }

      .cls-7 {
        fill: #ffc800;
      }

      .cls-8 {
        fill: #ffd1e8;
      }

      .cls-9 {
        fill: #00ff80;
      }

      .cls-10 {
        fill: #08f;
      }
    </style>
  </defs>
  <g id="Layer_3" data-name="Layer 3">
    <g id="donut">
      <path class="cls-4" d="M400.85,186.49C377.96,69.21,270.63-8.54,161.14,12.83,51.64,34.2-18.57,146.61,4.33,263.9c22.89,117.29,130.22,195.04,239.72,173.66,109.5-21.37,179.7-133.78,156.81-251.07ZM308.69,311.81H113.42V121.4h195.27v190.41Z"/>
      <path class="cls-2" d="M197.6,23.29c43.42,0,86.33,16.38,120.84,46.13,17.22,14.85,31.85,32.5,43.47,52.47,12.05,20.7,20.53,43.34,25.21,67.29,5.26,26.93,5.44,54.01.53,80.47-4.73,25.5-13.95,49.37-27.42,70.93-27.54,44.09-69.75,73.66-118.86,83.24-11.14,2.17-22.5,3.28-33.77,3.28-43.42,0-86.34-16.38-120.84-46.13-17.22-14.85-31.85-32.5-43.47-52.47-12.05-20.71-20.53-43.34-25.21-67.29-5.26-26.93-5.44-54.01-.53-80.47,4.73-25.5,13.95-49.37,27.42-70.93,27.54-44.09,69.75-73.66,118.86-83.24,11.13-2.17,22.49-3.27,33.78-3.28h0M197.58,9.29c-12.04,0-24.24,1.15-36.45,3.54C51.64,34.2-18.57,146.61,4.33,263.9c20.34,104.21,107.32,177.2,203.27,177.2,12.04,0,24.24-1.15,36.45-3.54,109.5-21.37,179.7-133.78,156.81-251.07C380.51,82.29,293.53,9.29,197.58,9.29h0Z"/>
      <path class="cls-4" d="M400.85,186.49C377.96,69.21,270.63-8.54,161.14,12.83,51.64,34.2-8.91,146.79,13.99,264.08c22.89,117.29,118.76,186.22,228.26,164.85,109.5-21.37,181.5-125.14,158.6-242.43ZM229.81,216.6l-15.85,68.71-61.3-60.12,54.07-69.87,23.08,61.28Z"/>
      <g>
        <path class="cls-2" d="M400.85,186.49C380.51,82.29,293.53,9.29,197.58,9.29c-12.04,0-24.24,1.15-36.45,3.54C51.64,34.2-18.57,146.61,4.33,263.9c20.34,104.21,107.32,177.2,203.27,177.2,12.04,0,24.24-1.15,36.45-3.54,109.5-21.37,179.7-133.78,156.81-251.07ZM387.64,269.65c-4.73,25.5-13.95,49.37-27.42,70.93-27.54,44.09-69.75,73.66-118.86,83.24-11.14,2.17-22.5,3.28-33.77,3.28-43.42,0-86.34-16.38-120.84-46.13-17.22-14.85-31.85-32.5-43.47-52.47-12.05-20.71-20.53-43.34-25.21-67.29-5.26-26.93-5.44-54.01-.53-80.47,4.73-25.5,13.95-49.37,27.42-70.93,27.54-44.09,69.75-73.66,118.86-83.24,11.13-2.17,22.49-3.27,33.78-3.28h0c43.42,0,86.33,16.38,120.84,46.13,17.22,14.85,31.85,32.5,43.47,52.47,12.05,20.7,20.53,43.34,25.21,67.29,5.26,26.93,5.44,54.01.53,80.47Z"/>
        <path class="cls-2" d="M227.42,181.98c-5.14-10.1-12.01-19.32-20.68-26.66l-7.16,11.44c13.29,12.4,22.09,30.07,22.65,48.29.15,4.73.23,10.03-.16,14.72-.95,14.56-7.74,27.65-15.33,39.92l11.89,7.38c7.13-11.64,13.6-24.17,16.1-37.84,1.24-6.82,1.44-13.84,1.28-20.7,0-12.63-2.9-25.36-8.59-36.56Z"/>
      </g>
      <circle class="cls-1" cx="69.09" cy="387.7" r="26.39"/>
      <g>
        <path class="cls-6" d="M221.23,184.72c.06.12.13.24.19.37-.06-.12-.13-.24-.19-.37Z"/>
        <path class="cls-6" d="M223.35,189.3c.07.17.14.33.21.5-.07-.17-.14-.33-.21-.5Z"/>
        <path class="cls-6" d="M206.59,164.26s-.02-.02-.03-.03c0,0,.02.02.03.03Z"/>
        <path class="cls-6" d="M222.32,186.97c.07.14.14.28.2.43-.07-.15-.14-.28-.2-.43Z"/>
        <path class="cls-6" d="M217.78,178.54c.04.07.09.14.13.21-.04-.07-.09-.14-.13-.21Z"/>
        <path class="cls-6" d="M218.96,180.51c.05.09.1.17.15.26-.05-.09-.1-.17-.15-.26Z"/>
        <path class="cls-6" d="M220.11,182.57c.06.11.12.21.17.31-.06-.11-.12-.21-.17-.31Z"/>
        <path class="cls-6" d="M216.58,176.65c.04.06.08.12.12.18-.04-.06-.08-.12-.12-.18Z"/>
        <path class="cls-6" d="M224.33,191.74c.07.18.15.36.21.55-.07-.19-.14-.36-.21-.55Z"/>
        <path class="cls-6" d="M227.47,202.3c.06.3.14.59.2.89-.06-.3-.13-.59-.2-.89Z"/>
        <path class="cls-6" d="M228.49,208.16c.04.33.1.66.14.99-.04-.34-.09-.66-.14-.99Z"/>
        <path class="cls-6" d="M228.84,211.41c.02.29.06.57.08.86-.02-.29-.06-.57-.08-.86Z"/>
        <path class="cls-6" d="M228.03,205.15c.06.33.12.64.18.97-.05-.33-.12-.65-.18-.97Z"/>
        <path class="cls-6" d="M225.23,194.25c.07.21.15.42.22.63-.07-.21-.15-.42-.22-.63Z"/>
        <path class="cls-6" d="M226.82,199.55c.07.26.14.51.21.78-.07-.26-.14-.52-.21-.78Z"/>
        <path class="cls-6" d="M226.07,196.86c.07.23.15.46.22.7-.07-.24-.15-.46-.22-.7Z"/>
        <path class="cls-6" d="M208.51,166.27s.02.02.03.04c-.01-.01-.02-.02-.03-.04Z"/>
        <path class="cls-6" d="M204.23,161.97s.03.03.05.04c-.02-.01-.03-.03-.05-.04Z"/>
        <path class="cls-6" d="M204.92,162.62s.02.02.03.03c-.01-.01-.02-.02-.03-.03Z"/>
        <path class="cls-6" d="M203.65,161.45s.03.03.05.05c-.02-.02-.03-.03-.05-.05Z"/>
        <path class="cls-6" d="M215.38,174.88s.06.09.1.13c-.03-.05-.06-.09-.1-.13Z"/>
        <path class="cls-6" d="M399.2,178.75C376.31,61.46,284.4-4.8,179.42,9.29c-43.45,5.83-63,14.89-90.82,34.31-38.35,26.78-39.38,43.86-55.81,77.79-19.78,40.85,10.69,61.27,18.04,98.92,4.82,24.7-13.31,62.08-1.78,83.46,13.5,25.04,36.07,22.64,55.35,41.92,21.13,21.13,10.78,59.2,41.07,76.8,35.84,20.83,90.14,10.95,123.22,0,85.32-28.24,153.41-126.47,130.52-243.76ZM243.88,278.57c-11.45,1.91-22.08-.24-31.2-5.17-15.2-8.23-26.22-24.22-29.85-42.14-5.51-27.15.27-56.57,19.78-70.69,0,0-.02-.01-.02-.01,0,0,11.23-6.37,18.32-7.65,19.3-3.46,42.5.32,41.29,12.72-.84,8.51,3.92,39.66,6.49,46.9,4.27,12.02,5.46,32.35,8.26,45.42,3.98,18.59-23.3,19-33.07,20.63Z"/>
        <path class="cls-6" d="M203.18,161.04s.04.03.05.05c-.02-.02-.04-.03-.05-.05Z"/>
        <path class="cls-6" d="M202.83,160.74s.04.03.06.05c-.03-.02-.04-.03-.06-.05Z"/>
        <path class="cls-6" d="M205.71,163.37s.02.02.02.02c0,0-.02-.02-.02-.02Z"/>
        <path class="cls-6" d="M202.61,160.56s.04.03.07.05c-.04-.03-.06-.05-.07-.05Z"/>
        <path class="cls-6" d="M212.99,171.61s.05.06.07.09c-.02-.03-.05-.06-.07-.09Z"/>
        <path class="cls-6" d="M214.17,173.19s.06.08.09.12c-.03-.04-.06-.08-.09-.12Z"/>
        <path class="cls-6" d="M211.82,170.13s.03.04.05.06c-.02-.02-.03-.04-.05-.06Z"/>
        <path class="cls-6" d="M207.5,165.2s.02.02.03.03c0-.01-.02-.02-.03-.03Z"/>
        <path class="cls-6" d="M209.57,167.45s.03.03.04.04c-.01-.02-.03-.03-.04-.04Z"/>
        <path class="cls-6" d="M210.67,168.73s.03.04.05.06c-.02-.02-.03-.04-.05-.06Z"/>
      </g>
      <path class="cls-3" d="M88.61,43.61c-38.35,26.78-39.38,43.86-55.81,77.79-19.78,40.85,10.69,61.27,18.04,98.92,4.82,24.7-13.31,62.08-1.78,83.46,13.5,25.04,36.07,22.64,55.35,41.92,21.13,21.13,10.78,59.2,41.07,76.8,35.84,20.83,90.14,14.43,123.22,3.48,62.3-20.62,115.08-82.12,132.33-160.47l-5.76,5.29c-36.56,79.59-110.98,136.31-181.6,112-31.33-10.78-41.26-42.82-59.02-57.34-29.59-24.2-60.18-31.56-68.63-55.49-11.57-32.79,7.09-65.34,4.57-85.25-7.71-60.88-14.52-118.61,58.01-168.98l-59.97,27.86Z"/>
      <g>
        <path class="cls-1" d="M327.01,611.78c-3.46-.04-7.3.03-11.12.16,4.31-13.98,6.16-28.62-1.25-42.62-9.17-17.34-30.55-29.32-67.27-37.69-8.07-1.84-16.12,3.21-17.96,11.29s3.21,16.12,11.29,17.96c33.4,7.61,44.22,16.42,47.42,22.47,4.17,7.89-.81,20.6-6.58,35.32-.53,1.35-1.06,2.71-1.59,4.08-1.86,4.81-1.13,10.23,1.95,14.37,2.84,3.83,7.32,6.05,12.04,6.05.39,0,.77-.01,1.16-.04.19-.01,19.19-1.48,31.61-1.34.05,0,.11,0,.16,0,8.21,0,14.91-6.61,15-14.84.09-8.28-6.56-15.07-14.84-15.16Z"/>
        <path class="cls-1" d="M185.89,167.97c-11.11,16.37-14.83,40.55-9.93,64.68,3.26,16.06,11.66,30.38,23.66,40.32,10.52,8.71,23.07,13.29,36.09,13.29,3.08,0,6.2-.26,9.31-.78l.35-.06c10.43-1.73,32.12-5.34,38.26-25.43,5.21-17.06-.1-25.82-5.23-34.28-2.94-4.85-5.72-9.43-7.13-16.38-.93-4.57-.19-9.15.68-14.44,1.43-8.78,3.21-19.7-3.57-32.52-7.35-13.92-26.48-20.33-48.71-16.34-14.06,2.52-25.74,10.12-33.78,21.96ZM222.14,159.79c15.88-2.85,29.48.81,33.86,9.1,4.58,8.67,3.45,15.65,2.13,23.73-.99,6.1-2.02,12.4-.58,19.48,1.9,9.34,5.77,15.72,8.88,20.85,4.49,7.4,7.19,11.86,3.81,22.93-3.32,10.88-15.77,13.81-27.17,15.71l-.35.06c-2.14.36-4.32.54-6.54.54-19.41,0-40.71-13.78-46.5-42.34-4.16-20.52-1.25-40.71,7.79-54.03,5.96-8.77,14.26-14.17,24.67-16.04Z"/>
        <path class="cls-1" d="M407.15,177.37C386.16,69.83,298.83,0,203.55,0v14h0c43.6,0,86.42,15.99,120.6,45.03,17.29,14.69,31.98,32.29,43.64,52.31,12.18,20.91,20.81,44.03,25.62,68.71,21.44,109.85-49,211.72-128.25,237.95-19.6,6.49-43.78,10.36-64.69,10.36s-38.82-3.83-51.3-11.08c-11.93-6.94-15.52-20.93-19.67-37.14-3.93-15.33-7.99-31.19-19.97-43.16-10.35-10.35-21.87-15.05-32.04-19.2-12.4-5.06-19.67-8.37-24.69-17.69-4.14-7.68-1.2-23.6,1.39-37.63,2.69-14.55,5.47-29.59,2.85-43.02-2.65-13.57-7.83-25.83-12.84-37.68-9.64-22.81-17.25-40.82-6.23-62.39,10.5-20.55,28.88-49.1,56.84-68.4,28.38-19.58,45.02-30.05,84.52-35.35,8.01-1.07,16.15-1.62,24.2-1.62V0s0,0,0,0c-8.63,0-17.34.57-26.06,1.75-43.45,5.83-62.68,18.43-90.61,37.7-29.05,20.05-48.8,48.97-61.36,73.55-20.64,40.42,10.45,71.47,17.8,109.12,4.82,24.7-14.35,63.23-2.82,84.62,13.5,25.04,39.88,20.86,59.16,40.14,21.13,21.13,12.22,64.9,42.5,82.5,16.27,9.46,37.21,12.98,58.33,12.98,25.39,0,51.03-5.09,69.09-11.07,10.64-3.52,21.11-8.29,31.26-14.16.43.39.86.79,1.31,1.15-4.44,19.77-13.5,34.82-28.14,46.92-6.39,5.28-7.28,14.73-2.01,21.12,2.97,3.59,7.25,5.44,11.57,5.44,3.36,0,6.75-1.13,9.55-3.44,20.98-17.34,33.87-39.71,39.29-68.25,11.73-7.22,15.95-22.35,9.55-34.63,49.51-48.98,81.15-126.36,65.2-208.07Z"/>
        <ellipse class="cls-1" cx="317.35" cy="295.82" rx="8.03" ry="9.75"/>
        <ellipse class="cls-1" cx="268.69" cy="310.95" rx="9.22" ry="11.2"/>
        <path class="cls-1" d="M317.35,315.66c-2.96-1.05-35.87,10.06-36.08,12.16-.21,2.1,6.29,14.67,22.64,8.59,14.6-5.43,16.39-19.7,13.44-20.75Z"/>
      </g>
      <g>
        <path class="cls-4" d="M129.61,468.83c27.91-34.64,126.81-20.98,153.93,6.34,20.43,20.58,21.85,52.26-2.28,69-28.41,19.7-115,21.45-141.95,4.48s-32.62-51.36-9.7-79.81Z"/>
        <path class="cls-5" d="M221.51,488.22c39.34,2.93,70.23-12.38,51.73-20.69s-107.54-20.38-124.47-8.47c-16.93,11.91,34.8,26.34,72.74,29.16Z"/>
        <path class="cls-2" d="M195.59,445.3v14h0c17.2,0,35.08,2.19,50.34,6.17,14.34,3.74,25.54,8.88,30.73,14.1,8.7,8.77,13.72,23.67,12.5,37.08-.6,6.52-2.91,15.41-10.54,20.7-12.16,8.43-45.33,14.56-78.85,14.56-30.21,0-48.43-4.72-54.85-8.77-10.51-6.62-18.12-18.59-20.36-32.02-2.13-12.77.93-25.06,8.62-34.6,8.56-10.62,32.48-17.22,62.42-17.22v-14M195.58,445.3c-31.01,0-60.61,6.67-73.32,22.44-22.93,28.45-11.77,70.28,15.19,87.25,11.74,7.39,36.14,10.92,62.31,10.92,33.92,0,70.79-5.93,86.83-17.05,24.14-16.74,20.43-58.56,0-79.15-14.77-14.88-53.91-24.41-91.01-24.41h0Z"/>
      </g>
      <path class="cls-1" d="M116.41,663.88c-6.14,0-11.9-3.8-14.11-9.91-4.22-11.69-12.22-28.97-12.3-29.14-2.17-4.68-1.79-10.14,1.02-14.47,2.8-4.33,7.65-6.93,12.78-6.85,30.93.4,39.81-5.37,44.11-10.44,5.74-6.78,7.09-18.96,3.99-36.22-1.46-8.15,3.96-15.95,12.11-17.41,8.15-1.47,15.95,3.96,17.41,12.11,4.82,26.86,1.34,46.79-10.63,60.92-11.2,13.22-27.57,18.37-44.62,20.18,1.56,3.78,3.09,7.63,4.35,11.13,2.81,7.79-1.22,16.39-9.01,19.2-1.68.61-3.4.9-5.09.9Z"/>
      <path class="cls-1" d="M136.52,491.76c-1.42,0-2.86-.2-4.28-.63-41.85-12.45-59.35-39.58-74.03-79.32-2.87-7.77,1.1-16.4,8.87-19.27,7.77-2.87,16.4,1.1,19.27,8.87,14.06,38.07,27.29,52.89,54.44,60.96,7.94,2.36,12.46,10.71,10.1,18.65-1.94,6.51-7.91,10.73-14.37,10.73Z"/>
      <path class="cls-8" d="M337.31,124.32c-4.4,0-8.72-2.15-11.31-6.11-23.11-35.35-59.73-59.44-97.95-64.45-7.39-.97-12.6-7.75-11.63-15.14.97-7.39,7.74-12.6,15.14-11.63,45.92,6.02,89.68,34.6,117.04,76.45,4.08,6.24,2.33,14.61-3.91,18.69-2.28,1.49-4.84,2.2-7.38,2.2Z"/>
      <path class="cls-8" d="M156.99,59.82c-4.75,0-9.35-2.51-11.82-6.96-3.61-6.52-1.26-14.74,5.26-18.35,9.49-5.26,31.42-9.34,43.95-9.34,7.46,0,13.5,6.04,13.5,13.5s-6.04,13.5-13.5,13.5c-10.17,0-26.91,3.77-30.86,5.96-2.07,1.15-4.32,1.7-6.53,1.7Z"/>
      <rect class="cls-9" x="111.93" y="203.11" width="44.68" height="13.09" rx="6.54" ry="6.54" transform="translate(134.42 -39.31) rotate(32.67)"/>
      <rect class="cls-9" x="234.38" y="359.23" width="44.68" height="13.09" rx="6.54" ry="6.54" transform="translate(701.85 326.33) rotate(120)"/>
      <rect class="cls-9" x="217.62" y="93.88" width="44.68" height="13.09" rx="6.54" ry="6.54" transform="translate(254.73 -159.28) rotate(70.55)"/>
      <rect class="cls-9" x="332.64" y="277.55" width="44.68" height="13.09" rx="6.54" ry="6.54" transform="translate(728.61 543.14) rotate(176.06)"/>
      <rect class="cls-10" x="127.84" y="279.53" width="44.68" height="13.09" rx="6.54" ry="6.54" transform="translate(467.63 225.99) rotate(106.98)"/>
      <rect class="cls-10" x="328.58" y="142.28" width="44.68" height="13.09" rx="6.54" ry="6.54" transform="translate(227.08 -211.67) rotate(48.06)"/>
      <rect class="cls-10" x="140.88" y="137.22" width="44.68" height="13.09" rx="6.54" ry="6.54" transform="translate(-34.69 53.54) rotate(-16.87)"/>
      <rect class="cls-7" x="314.19" y="205.98" width="44.68" height="13.09" rx="6.54" ry="6.54" transform="translate(622.14 489.72) rotate(-168.13)"/>
      <rect class="cls-7" x="111.93" y="78.21" width="44.68" height="13.09" rx="6.54" ry="6.54" transform="translate(276.61 155.13) rotate(174.05)"/>
      <rect class="cls-7" x="277.57" y="128.96" width="44.68" height="13.09" rx="6.54" ry="6.54" transform="translate(607.79 19.25) rotate(135)"/>
      <rect class="cls-7" x="153.34" y="339.16" width="44.68" height="13.09" rx="6.54" ry="6.54" transform="translate(136.94 731.54) rotate(-147.33)"/>
    </g>
  </g>
</svg>