<?xml version="1.0" encoding="UTF-8"?>
<svg id="Layer_2" data-name="Layer 2" xmlns="http://www.w3.org/2000/svg" viewBox="0 0 224.15 79.57">
  <defs>
    <style>
      .cls-1 {
        fill: #ff0080;
        stroke-width: 0px;
      }
    </style>
  </defs>
  <g id="Layer_1-2" data-name="Layer 1">
    <g>
      <path class="cls-1" d="M12.96,0c3.81,0,6.92.71,9.34,2.14,2.42,1.42,4.21,3.44,5.38,6.05s1.75,5.7,1.75,9.29c0,6.02-1.29,10.43-3.89,13.25-2.59,2.82-6.56,4.22-11.9,4.22h-2.11c-1.57,0-3.02-.16-4.37-.48-1.34-.32-2.53-.9-3.55-1.75-1.02-.85-1.82-2.04-2.4-3.58-.58-1.54-.87-3.52-.87-5.95,0-2.27.31-4.24.94-5.9s1.37-2.99,2.23-3.98c.87-.99,1.65-1.6,2.35-1.82l-.24-.91h-.82c-1.47,0-2.63-.47-3.48-1.42C.47,8.2.03,6.93,0,5.33-.03,3.73.39,2.44,1.27,1.46c.88-.98,2.06-1.46,3.53-1.46h8.16ZM9.51,22.56c0,.67.15,1.14.46,1.39.3.26.76.38,1.37.38h2.59c1.63,0,2.9-.35,3.79-1.06.89-.7,1.53-1.61,1.9-2.71.37-1.1.55-2.28.55-3.53s-.18-2.45-.55-3.6c-.37-1.15-1-2.1-1.9-2.83-.9-.74-2.16-1.1-3.79-1.1h-2.59c-.61,0-1.06.14-1.37.41-.3.27-.46.76-.46,1.46v11.18Z"/>
      <path class="cls-1" d="M42.34,35.04c-3.74,0-6.73-1.11-8.95-3.34-2.22-2.22-3.34-5.37-3.34-9.43,0-2.5.51-4.69,1.54-6.58,1.02-1.89,2.46-3.37,4.3-4.44,1.84-1.07,3.99-1.61,6.46-1.61,2.75,0,5.04.54,6.86,1.61,1.82,1.07,3.19,2.55,4.1,4.44.91,1.89,1.37,4.08,1.37,6.58,0,4.06-1.02,7.21-3.05,9.43-2.03,2.22-5.13,3.34-9.29,3.34ZM35.76,21.46c0,.99.5,1.69,1.49,2.09.99.4,2.69.6,5.09.6s4.1-.2,5.09-.6c.99-.4,1.49-1.1,1.49-2.09s-.5-1.63-1.49-2.02c-.99-.38-2.69-.58-5.09-.58s-4.1.19-5.09.58c-.99.38-1.49,1.06-1.49,2.02Z"/>
      <path class="cls-1" d="M60.15,34.94c-1.41,0-2.54-.42-3.38-1.27-.85-.85-1.27-1.9-1.27-3.14v-15.89c0-1.34.4-2.48,1.2-3.41s1.95-1.39,3.46-1.39,2.59.46,3.36,1.39c.77.93,1.15,2.1,1.15,3.5v2.4h.86c0-1.82.33-3.26.98-4.32.66-1.06,1.5-1.82,2.52-2.28s2.05-.7,3.07-.7c2.46,0,4.27.89,5.42,2.66,1.15,1.78,1.73,4.3,1.73,7.56v10.46c0,1.25-.42,2.3-1.25,3.14-.83.85-1.95,1.27-3.36,1.27s-2.58-.42-3.43-1.27c-.85-.85-1.27-1.9-1.27-3.14v-8.5c0-1.15-.22-2.05-.65-2.69-.43-.64-1.06-.96-1.9-.96-.96,0-1.66.35-2.09,1.06s-.65,1.6-.65,2.69v8.4c0,1.25-.4,2.3-1.2,3.14-.8.85-1.9,1.27-3.31,1.27Z"/>
      <path class="cls-1" d="M87.89,34.94c-2.24,0-4.06-.85-5.47-2.54s-2.13-4.08-2.16-7.15l-.05-11.09c0-1.38.42-2.46,1.27-3.24.85-.78,2.01-1.18,3.48-1.18s2.54.39,3.41,1.18c.86.79,1.3,1.86,1.3,3.24v10.03c0,2.4.94,3.6,2.83,3.6.93,0,1.55-.34,1.87-1.03.32-.69.48-1.58.48-2.66v-9.94c0-1.25.43-2.3,1.3-3.14.86-.85,1.98-1.27,3.36-1.27s2.55.42,3.34,1.27c.78.85,1.18,1.9,1.18,3.14v15.74c0,1.54-.34,2.76-1.03,3.67-.69.91-1.8,1.37-3.34,1.37s-2.68-.46-3.53-1.37c-.85-.91-1.27-2.14-1.27-3.67v-.82h-.86c0,1.86-.55,3.3-1.66,4.32-1.1,1.02-2.58,1.54-4.44,1.54Z"/>
      <path class="cls-1" d="M118.94,35.09c-1.7,0-3.22-.38-4.58-1.15-1.36-.77-2.42-1.86-3.19-3.29-.77-1.42-1.15-3.1-1.15-5.02v-8.45l-1.78.24c-.96.13-1.81-.21-2.54-1.01-.74-.8-1.1-1.81-1.1-3.02s.37-2.22,1.1-3,1.58-1.11,2.54-.98l1.78.24-.05-3.26c-.03-1.28.34-2.3,1.1-3.05.77-.75,1.89-1.13,3.36-1.13s2.61.38,3.41,1.13c.8.75,1.17,1.77,1.1,3.05l-.1,3.26,2.54-.34c1.73-.26,3.04.06,3.94.94.89.88,1.34,1.93,1.34,3.14s-.44,2.26-1.32,3.14-2.15,1.21-3.82.98l-2.69-.34v7.15c0,.42.14.79.43,1.13.29.34.64.44,1.06.31.48-.13.98-.4,1.51-.82.53-.42,1.21-.62,2.04-.62,1.25,0,2.21.45,2.88,1.34.67.9,1.01,2,1.01,3.31,0,1.02-.36,2.01-1.08,2.95-.72.94-1.74,1.7-3.05,2.28-1.31.58-2.88.86-4.7.86Z"/>
      <path class="cls-1" d="M148.32,35.28c-2.37,0-4.56-.42-6.58-1.27-2.02-.85-3.62-2.16-4.82-3.94-1.2-1.78-1.8-4.04-1.8-6.79,0-1.89.46-3.33,1.37-4.32.91-.99,2.15-1.49,3.72-1.49s2.84.42,3.72,1.27c.88.85,1.32,2.12,1.32,3.82,0,1.54.28,2.58.84,3.14.56.56,1.24.84,2.04.84s1.46-.28,1.97-.84c.51-.56.77-1.61.77-3.14v-3.31c0-1.63.22-2.98.65-4.03.43-1.06.94-1.88,1.51-2.47.58-.59,1.09-.98,1.54-1.18l-.24-.91h-12.05c-1.54,0-2.76-.46-3.67-1.37-.91-.91-1.4-2.18-1.46-3.82-.03-1.6.43-2.9,1.39-3.89.96-.99,2.21-1.49,3.74-1.49h13.82c1.5,0,2.65.5,3.43,1.51.78,1.01,1.18,2.31,1.18,3.91v17.76c0,2.75-.54,5.02-1.61,6.79-1.07,1.78-2.54,3.09-4.42,3.94-1.87.85-3.99,1.27-6.36,1.27Z"/>
      <path class="cls-1" d="M168.77,34.94c-2.37,0-4.22-.64-5.54-1.92-1.33-1.28-1.99-3.07-1.99-5.38s.77-3.98,2.3-5.02c1.54-1.04,3.5-1.56,5.9-1.56,1.41,0,2.69.1,3.84.29,1.15.19,2.19.46,3.12.82h.14v-.72c0-.74-.27-1.32-.82-1.75-.54-.43-1.23-.63-2.06-.6-.8,0-1.48.05-2.04.14s-1.26.26-2.09.48c-1.54.38-2.86.35-3.98-.1-1.12-.45-1.89-1.33-2.3-2.64-.38-1.38-.3-2.53.26-3.46.56-.93,1.42-1.65,2.57-2.16.99-.48,2.1-.88,3.34-1.2,1.23-.32,2.57-.48,4.01-.48,4.19,0,7.27,1.02,9.24,3.05,1.97,2.03,2.95,5.43,2.95,10.2v7.44c0,1.31-.4,2.4-1.2,3.26-.8.86-1.9,1.3-3.31,1.3-1.54,0-2.68-.43-3.43-1.3-.75-.86-1.13-1.92-1.13-3.17v-1.1h-.96c0,.83-.15,1.68-.46,2.54s-.93,1.58-1.87,2.16-2.44.86-4.49.86ZM169.25,24.43c0,.54.2.93.6,1.15.4.22,1.27.34,2.62.34,1.21,0,2.06-.11,2.54-.34.48-.22.72-.61.72-1.15,0-.51-.24-.87-.72-1.08-.48-.21-1.33-.31-2.54-.31-1.34,0-2.22.1-2.62.31s-.6.57-.6,1.08Z"/>
      <path class="cls-1" d="M191.42,34.94c-1.44,0-2.58-.42-3.43-1.27-.85-.85-1.27-1.9-1.27-3.14v-15.89c0-1.34.41-2.48,1.22-3.41s1.98-1.39,3.48-1.39,2.58.46,3.31,1.39,1.1,2.1,1.1,3.5v2.4h.86c0-2.72.58-4.62,1.73-5.69,1.15-1.07,2.58-1.61,4.27-1.61,2.18,0,3.78.67,4.8,2.02,1.02,1.34,1.54,3.1,1.54,5.28h.86c0-1.82.3-3.26.91-4.32.61-1.06,1.38-1.82,2.33-2.28.94-.46,1.93-.7,2.95-.7,2.08,0,3.61.5,4.58,1.49.98.99,1.61,2.32,1.9,3.98s.43,3.54.43,5.62v9.6c0,1.25-.42,2.3-1.27,3.14-.85.85-1.98,1.27-3.38,1.27s-2.54-.42-3.41-1.27c-.86-.85-1.3-1.9-1.3-3.14v-8.5c0-1.15-.14-2.05-.43-2.69-.29-.64-.87-.96-1.73-.96-.93,0-1.53.35-1.8,1.06s-.41,1.6-.41,2.69v8.4c0,1.25-.4,2.3-1.2,3.14-.8.85-1.9,1.27-3.31,1.27s-2.58-.42-3.43-1.27c-.85-.85-1.27-1.9-1.27-3.14v-8.5c0-1.15-.14-2.05-.43-2.69-.29-.64-.85-.96-1.68-.96-.93,0-1.51.35-1.75,1.06-.24.7-.36,1.6-.36,2.69v8.4c0,1.25-.38,2.3-1.15,3.14-.77.85-1.86,1.27-3.26,1.27Z"/>
      <path class="cls-1" d="M79.24,79.09c-1.79,0-3.59-.18-5.4-.55-1.81-.37-3.47-.91-4.99-1.63-1.52-.72-2.75-1.6-3.67-2.64s-1.39-2.25-1.39-3.62c0-1.76.56-3.17,1.68-4.22,1.12-1.06,2.43-1.55,3.94-1.49,1.18.03,2.37.28,3.55.74,1.18.46,2.39.92,3.62,1.37s2.47.67,3.72.67,2.11-.16,2.59-.48c.48-.32.72-.75.72-1.3,0-.64-.34-1.17-1.01-1.58-.67-.42-1.52-.74-2.54-.96l-2.35-.58c-2.43-.58-4.61-1.22-6.53-1.94-1.92-.72-3.43-1.68-4.54-2.88-1.1-1.2-1.66-2.81-1.66-4.82,0-2.21.61-4.01,1.82-5.4,1.21-1.39,2.86-2.41,4.94-3.05,2.08-.64,4.4-.96,6.96-.96s4.93.27,6.91.82c1.98.54,3.53,1.33,4.63,2.35,1.1,1.02,1.66,2.27,1.66,3.74,0,1.57-.42,2.79-1.27,3.67-.85.88-1.98,1.32-3.38,1.32-.93,0-1.9-.16-2.9-.48-1.01-.32-2.06-.63-3.17-.94s-2.28-.46-3.53-.46c-1.12,0-1.97.17-2.54.5-.58.34-.86.78-.86,1.32,0,.67.38,1.17,1.15,1.49.77.32,2.03.7,3.79,1.15l2.69.62c2.21.54,4.14,1.2,5.81,1.97,1.66.77,2.96,1.78,3.89,3.02.93,1.25,1.39,2.88,1.39,4.9,0,2.43-.58,4.41-1.73,5.93-1.15,1.52-2.75,2.63-4.8,3.34-2.05.7-4.45,1.06-7.2,1.06Z"/>
      <path class="cls-1" d="M105.21,79.09c-1.7,0-3.22-.38-4.58-1.15-1.36-.77-2.42-1.86-3.19-3.29-.77-1.42-1.15-3.1-1.15-5.02v-8.45l-1.78.24c-.96.13-1.81-.21-2.54-1.01-.74-.8-1.1-1.81-1.1-3.02s.37-2.22,1.1-3c.74-.78,1.58-1.11,2.54-.98l1.78.24-.05-3.26c-.03-1.28.34-2.3,1.1-3.05s1.89-1.13,3.36-1.13,2.61.38,3.41,1.13c.8.75,1.17,1.77,1.1,3.05l-.1,3.26,2.54-.34c1.73-.26,3.04.06,3.94.94s1.34,1.93,1.34,3.14-.44,2.26-1.32,3.14c-.88.88-2.15,1.21-3.82.98l-2.69-.34v7.15c0,.42.14.79.43,1.13s.64.44,1.06.31c.48-.13.98-.4,1.51-.82s1.21-.62,2.04-.62c1.25,0,2.21.45,2.88,1.34.67.9,1.01,2,1.01,3.31,0,1.02-.36,2.01-1.08,2.95-.72.94-1.74,1.7-3.05,2.28s-2.88.86-4.7.86Z"/>
      <path class="cls-1" d="M122.1,78.94c-2.24,0-4.06-.85-5.47-2.54-1.41-1.7-2.13-4.08-2.16-7.15l-.05-11.09c0-1.38.42-2.46,1.27-3.24.85-.78,2.01-1.18,3.48-1.18s2.54.39,3.41,1.18c.86.78,1.3,1.86,1.3,3.24v10.03c0,2.4.94,3.6,2.83,3.6.93,0,1.55-.34,1.87-1.03.32-.69.48-1.58.48-2.66v-9.94c0-1.25.43-2.29,1.3-3.14.86-.85,1.98-1.27,3.36-1.27s2.55.42,3.34,1.27c.78.85,1.18,1.9,1.18,3.14v15.74c0,1.54-.34,2.76-1.03,3.67s-1.8,1.37-3.34,1.37-2.68-.46-3.53-1.37-1.27-2.14-1.27-3.67v-.82h-.86c0,1.86-.55,3.3-1.66,4.32-1.1,1.02-2.58,1.54-4.44,1.54Z"/>
      <path class="cls-1" d="M147.93,78.94c-5.82,0-8.74-4.29-8.74-12.86,0-3.71.72-6.68,2.16-8.9,1.44-2.22,3.6-3.34,6.48-3.34,1.57,0,2.84.32,3.82.96.97.64,1.74,1.51,2.3,2.62.56,1.1.97,2.38,1.22,3.82l.14-.05v-14.54c0-1.31.39-2.42,1.18-3.34.78-.91,1.93-1.37,3.43-1.37s2.57.46,3.29,1.37,1.08,2.06,1.08,3.43v21.6c0,1.09.09,2.09.26,3,.17.91.31,1.82.41,2.71.1,1.22-.15,2.26-.74,3.14-.59.88-1.64,1.45-3.14,1.7-1.95.32-3.4-.02-4.34-1.01-.95-.99-1.42-2.46-1.42-4.42v-1.78h-.91c0,2.34-.58,4.13-1.75,5.38-1.17,1.25-2.74,1.87-4.73,1.87ZM147.21,65.65c0,.99.3,1.73.91,2.21.61.48,1.7.72,3.26.72s2.7-.24,3.31-.72c.61-.48.91-1.22.91-2.21s-.3-1.77-.89-2.23c-.59-.46-1.69-.7-3.29-.7s-2.7.23-3.31.7c-.61.46-.91,1.21-.91,2.23Z"/>
      <path class="cls-1" d="M165.54,48.27c0-1.38.42-2.49,1.27-3.34s2.02-1.27,3.53-1.27c1.6,0,2.79.42,3.58,1.25.78.83,1.18,1.94,1.18,3.31s-.39,2.42-1.18,3.24c-.79.82-1.98,1.22-3.58,1.22s-2.76-.41-3.58-1.22c-.82-.82-1.22-1.88-1.22-3.19ZM170.34,78.94c-1.5,0-2.62-.42-3.36-1.25-.74-.83-1.1-1.87-1.1-3.12v-16.42c0-1.38.37-2.46,1.1-3.26.74-.8,1.86-1.2,3.36-1.2s2.63.4,3.38,1.2c.75.8,1.13,1.86,1.13,3.17v16.51c0,1.25-.39,2.29-1.18,3.12-.79.83-1.9,1.25-3.34,1.25Z"/>
      <path class="cls-1" d="M188.15,79.04c-3.74,0-6.73-1.11-8.95-3.34-2.22-2.22-3.34-5.37-3.34-9.43,0-2.5.51-4.69,1.54-6.58,1.02-1.89,2.46-3.37,4.3-4.44s3.99-1.61,6.46-1.61c2.75,0,5.04.54,6.86,1.61s3.19,2.55,4.1,4.44c.91,1.89,1.37,4.08,1.37,6.58,0,4.06-1.02,7.21-3.05,9.43-2.03,2.22-5.13,3.34-9.29,3.34ZM181.57,65.46c0,.99.5,1.69,1.49,2.09.99.4,2.69.6,5.09.6s4.1-.2,5.09-.6c.99-.4,1.49-1.1,1.49-2.09s-.5-1.63-1.49-2.02c-.99-.38-2.69-.58-5.09-.58s-4.1.19-5.09.58c-.99.38-1.49,1.06-1.49,2.02Z"/>
      <path class="cls-1" d="M212.68,79.57c-2.21,0-4.25-.22-6.12-.65-1.87-.43-3.37-1.12-4.49-2.06-1.12-.94-1.68-2.2-1.68-3.77,0-1.38.42-2.51,1.25-3.41.83-.9,1.94-1.34,3.31-1.34.86,0,1.74.14,2.62.41.88.27,1.82.54,2.81.79.99.26,2.06.38,3.22.38,1.02,0,1.71-.06,2.06-.17.35-.11.53-.33.53-.65,0-.38-.22-.64-.65-.77-.43-.13-1.16-.29-2.18-.48l-3.46-.67c-1.44-.29-2.84-.66-4.2-1.13-1.36-.46-2.48-1.16-3.36-2.09-.88-.93-1.32-2.19-1.32-3.79,0-2.18.97-3.87,2.9-5.09,1.94-1.22,4.74-1.82,8.42-1.82,2.11,0,4.01.21,5.69.62s3.02,1.03,4.01,1.85c.99.82,1.49,1.83,1.49,3.05.03,1.31-.32,2.37-1.06,3.17-.74.8-1.67,1.2-2.78,1.2-.8,0-1.61-.1-2.42-.31s-1.7-.43-2.64-.67c-.94-.24-2.02-.38-3.24-.41-.86-.06-1.57-.02-2.11.14-.54.16-.82.42-.82.77,0,.38.32.65.96.79.64.14,1.6.33,2.88.55l3.41.62c2.08.35,3.74.79,4.97,1.32,1.23.53,2.12,1.26,2.66,2.18.54.93.82,2.21.82,3.84s-.49,3.11-1.46,4.25-2.33,1.98-4.06,2.52c-1.73.54-3.71.82-5.95.82Z"/>
    </g>
  </g>
</svg>