<?xml version="1.0" encoding="UTF-8"?>
<svg id="Layer_2" data-name="Layer 2" xmlns="http://www.w3.org/2000/svg" viewBox="0 0 457.92 93.71">
  <defs>
    <style>
      .cls-1 {
        fill: #FF0081;
        stroke-width: 0px;
      }
    </style>
  </defs>
  <g id="Layer_1-2" data-name="Layer 1">
    <g>
      <path class="cls-1" d="M30.88,74.24c-3.58,0-7.18-.37-10.79-1.1-3.61-.73-6.94-1.82-9.98-3.26-3.04-1.44-5.48-3.2-7.34-5.28-1.85-2.08-2.78-4.49-2.78-7.24,0-3.52,1.12-6.33,3.36-8.44,2.24-2.11,4.86-3.1,7.86-2.97,2.37.06,4.73.56,7.1,1.49,2.37.93,4.78,1.84,7.24,2.73,2.46.9,4.94,1.34,7.43,1.34s4.22-.32,5.18-.96c.96-.64,1.44-1.5,1.44-2.59,0-1.28-.67-2.33-2.01-3.17-1.34-.83-3.04-1.47-5.08-1.92l-4.7-1.15c-4.86-1.15-9.21-2.45-13.04-3.88-3.84-1.44-6.86-3.36-9.06-5.75s-3.31-5.61-3.31-9.64c0-4.41,1.21-8.01,3.64-10.79,2.43-2.78,5.72-4.81,9.88-6.09,4.16-1.28,8.79-1.92,13.91-1.92s9.85.54,13.81,1.63c3.96,1.09,7.05,2.65,9.26,4.7,2.21,2.05,3.31,4.54,3.31,7.48,0,3.13-.85,5.58-2.54,7.34-1.69,1.76-3.95,2.64-6.76,2.64-1.85,0-3.79-.32-5.8-.96-2.01-.64-4.12-1.26-6.33-1.87-2.21-.61-4.56-.91-7.05-.91-2.24,0-3.93.34-5.08,1.01s-1.73,1.55-1.73,2.64c0,1.34.77,2.33,2.3,2.97,1.53.64,4.06,1.41,7.58,2.3l5.37,1.25c4.41,1.09,8.28,2.4,11.61,3.93,3.32,1.53,5.91,3.55,7.77,6.04,1.85,2.49,2.78,5.75,2.78,9.78,0,4.86-1.15,8.81-3.45,11.85-2.3,3.04-5.5,5.26-9.59,6.67-4.09,1.41-8.89,2.11-14.39,2.11Z"/>
      <path class="cls-1" d="M82.69,74.24c-3.39,0-6.44-.77-9.16-2.3-2.72-1.53-4.84-3.72-6.38-6.57-1.53-2.84-2.3-6.19-2.3-10.02v-16.88l-3.55.48c-1.92.26-3.61-.42-5.08-2.01-1.47-1.6-2.21-3.61-2.21-6.04s.73-4.43,2.21-5.99c1.47-1.57,3.17-2.22,5.08-1.97l3.55.48-.1-6.52c-.06-2.56.67-4.59,2.21-6.09,1.53-1.5,3.77-2.25,6.71-2.25s5.21.75,6.81,2.25c1.6,1.5,2.33,3.53,2.21,6.09l-.19,6.52,5.08-.67c3.45-.51,6.07.11,7.87,1.87,1.79,1.76,2.69,3.85,2.69,6.28s-.88,4.52-2.64,6.28-4.3,2.41-7.62,1.97l-5.37-.67v14.29c0,.83.29,1.58.86,2.25.58.67,1.28.88,2.11.62.96-.25,1.97-.8,3.02-1.63,1.06-.83,2.41-1.25,4.08-1.25,2.49,0,4.41.9,5.75,2.69,1.34,1.79,2.01,4,2.01,6.62,0,2.05-.72,4.01-2.16,5.9-1.44,1.89-3.47,3.4-6.09,4.56-2.62,1.15-5.75,1.73-9.4,1.73Z"/>
      <path class="cls-1" d="M116.85,73.95c-4.73,0-8.43-1.28-11.08-3.84-2.65-2.56-3.98-6.14-3.98-10.74s1.53-7.94,4.6-10.02c3.07-2.08,7-3.12,11.8-3.12,2.81,0,5.37.19,7.67.58,2.3.38,4.38.93,6.23,1.63h.29v-1.44c0-1.47-.54-2.64-1.63-3.5-1.09-.86-2.46-1.26-4.12-1.2-1.6,0-2.96.1-4.08.29-1.12.19-2.51.51-4.17.96-3.07.77-5.72.7-7.96-.19-2.24-.89-3.77-2.65-4.6-5.28-.77-2.75-.59-5.05.53-6.91,1.12-1.85,2.83-3.29,5.13-4.32,1.98-.96,4.2-1.76,6.67-2.4,2.46-.64,5.13-.96,8.01-.96,8.38,0,14.53,2.03,18.46,6.09,3.93,4.06,5.9,10.85,5.9,20.38v14.87c0,2.62-.8,4.8-2.4,6.52-1.6,1.73-3.81,2.59-6.62,2.59-3.07,0-5.36-.86-6.86-2.59-1.5-1.73-2.25-3.84-2.25-6.33v-2.21h-1.92c0,1.66-.3,3.36-.91,5.08-.61,1.73-1.86,3.17-3.74,4.32-1.89,1.15-4.88,1.73-8.97,1.73ZM117.81,52.94c0,1.09.4,1.86,1.2,2.3.8.45,2.54.67,5.23.67,2.43,0,4.12-.22,5.08-.67.96-.45,1.44-1.21,1.44-2.3,0-1.02-.48-1.74-1.44-2.16-.96-.42-2.65-.62-5.08-.62-2.69,0-4.43.21-5.23.62-.8.42-1.2,1.14-1.2,2.16Z"/>
      <path class="cls-1" d="M168.72,93.71c-4.28,0-7.79-.71-10.5-2.11-2.72-1.41-4.84-3.26-6.38-5.56-1.28-1.98-2-4.06-2.16-6.23-.16-2.17.24-4.21,1.2-6.09.96-1.88,2.4-3.34,4.32-4.36,1.98-1.09,3.96-1.52,5.95-1.29,1.98.23,3.8.96,5.47,2.21,1.66,1.25,2.94,2.86,3.84,4.84.96,2.11,1.93,3.66,2.93,4.65s2.29,1.2,3.88.62c1.53-.51,2.09-1.92,1.68-4.22-.42-2.3-1.26-5.02-2.54-8.15h-3.55c-2.75,0-5.5-.99-8.25-2.97-2.75-1.98-5.05-5.12-6.91-9.4l-7.87-18.22c-1.22-2.88-1.33-5.53-.34-7.96.99-2.43,2.8-4.19,5.42-5.28,2.43-1.09,4.83-1.15,7.19-.19,2.36.96,4.22,3.01,5.56,6.14l7.29,16.98c1.21,2.75,2.54,4.73,3.98,5.95,1.44,1.22,2.96,1.41,4.56.58,1.41-.77,2.17-1.84,2.3-3.21.13-1.37-.54-3.05-2.01-5.04-.64-.89-1.39-1.89-2.25-2.97-.86-1.09-1.63-2.35-2.3-3.79-.67-1.44-1.01-3.05-1.01-4.84,0-3,1.02-5.48,3.07-7.43,2.05-1.95,4.73-2.93,8.06-2.93,3,0,5.42.96,7.24,2.88,1.82,1.92,2.73,4.41,2.73,7.48,0,2.17-.26,4.57-.77,7.19-.51,2.62-1.09,5.05-1.73,7.29l-6.91,25.23c-1.02,3.77-2.37,7.19-4.03,10.26-1.66,3.07-3.87,5.5-6.62,7.29-2.75,1.79-6.27,2.69-10.55,2.69Z"/>
      <path class="cls-1" d="M242.32,74.24c-3.39,0-6.44-.77-9.16-2.3-2.72-1.53-4.84-3.72-6.38-6.57-1.54-2.84-2.3-6.19-2.3-10.02v-16.88l-3.55.48c-1.92.26-3.61-.42-5.08-2.01-1.47-1.6-2.21-3.61-2.21-6.04s.73-4.43,2.21-5.99c1.47-1.57,3.17-2.22,5.08-1.97l3.55.48-.1-6.52c-.06-2.56.67-4.59,2.21-6.09,1.54-1.5,3.77-2.25,6.71-2.25s5.21.75,6.81,2.25c1.6,1.5,2.33,3.53,2.21,6.09l-.19,6.52,5.08-.67c3.45-.51,6.07.11,7.86,1.87,1.79,1.76,2.69,3.85,2.69,6.28s-.88,4.52-2.64,6.28c-1.76,1.76-4.3,2.41-7.63,1.97l-5.37-.67v14.29c0,.83.29,1.58.86,2.25.58.67,1.28.88,2.11.62.96-.25,1.97-.8,3.02-1.63,1.05-.83,2.41-1.25,4.08-1.25,2.49,0,4.41.9,5.75,2.69,1.34,1.79,2.01,4,2.01,6.62,0,2.05-.72,4.01-2.16,5.9-1.44,1.89-3.47,3.4-6.09,4.56-2.62,1.15-5.75,1.73-9.4,1.73Z"/>
      <path class="cls-1" d="M275.63,73.95c-4.48,0-8.12-1.69-10.93-5.08-2.81-3.39-4.25-8.15-4.32-14.29l-.1-22.16c0-2.75.85-4.91,2.54-6.47,1.69-1.57,4.01-2.35,6.95-2.35s5.08.78,6.81,2.35c1.73,1.57,2.59,3.73,2.59,6.47v20.05c0,4.8,1.89,7.19,5.66,7.19,1.85,0,3.1-.69,3.74-2.06.64-1.37.96-3.15.96-5.32v-19.85c0-2.49.86-4.59,2.59-6.28,1.73-1.69,3.96-2.54,6.71-2.54s5.1.85,6.67,2.54c1.57,1.7,2.35,3.79,2.35,6.28v31.46c0,3.07-.69,5.51-2.06,7.34-1.38,1.82-3.6,2.73-6.67,2.73s-5.36-.91-7.05-2.73c-1.7-1.82-2.54-4.27-2.54-7.34v-1.63h-1.73c0,3.71-1.1,6.59-3.31,8.63-2.21,2.05-5.16,3.07-8.87,3.07Z"/>
      <path class="cls-1" d="M319.15,73.95c-2.81,0-5.07-.85-6.76-2.54-1.7-1.69-2.54-3.79-2.54-6.28v-31.75c0-2.69.8-4.95,2.4-6.81,1.6-1.85,3.9-2.78,6.91-2.78s5.18.93,6.71,2.78c1.53,1.86,2.3,4.19,2.3,7v4.8h1.73c0-3.64.66-6.52,1.97-8.63,1.31-2.11,2.99-3.63,5.04-4.56,2.05-.93,4.09-1.39,6.14-1.39,4.92,0,8.54,1.77,10.84,5.32s3.45,8.58,3.45,15.11v20.91c0,2.49-.83,4.59-2.49,6.28-1.66,1.69-3.9,2.54-6.71,2.54s-5.16-.85-6.86-2.54c-1.7-1.69-2.54-3.79-2.54-6.28v-16.98c0-2.3-.43-4.09-1.29-5.37-.86-1.28-2.13-1.92-3.79-1.92-1.92,0-3.31.7-4.17,2.11-.86,1.41-1.29,3.2-1.29,5.37v16.79c0,2.49-.8,4.59-2.4,6.28-1.6,1.69-3.81,2.54-6.62,2.54Z"/>
      <path class="cls-1" d="M358.93,49.01c0-5.05,1.01-9.5,3.02-13.33,2.01-3.84,4.89-6.84,8.63-9.02,3.74-2.17,8.2-3.26,13.38-3.26,4.03,0,7.66.74,10.89,2.21,3.23,1.47,5.77,3.44,7.62,5.9,1.85,2.46,2.78,5.16,2.78,8.1s-.9,5.24-2.69,6.52c-1.79,1.28-4.44,1.92-7.96,1.92h-20.14c0,1.66.66,3.04,1.97,4.12,1.31,1.09,3.53,1.63,6.67,1.63,1.6,0,3.08-.16,4.46-.48,1.37-.32,2.78-.62,4.22-.91s3.05-.43,4.84-.43c2.56,0,4.67.91,6.33,2.73,1.66,1.82,2.49,4.33,2.49,7.53,0,3.77-1.93,6.71-5.8,8.82-3.87,2.11-8.94,3.17-15.2,3.17-4.41,0-8.55-.86-12.42-2.59-3.87-1.73-7.02-4.46-9.45-8.2-2.43-3.74-3.64-8.55-3.64-14.44ZM390,44.89c.96,0,1.28-.45.96-1.34-.26-.9-1.02-1.82-2.3-2.78-1.28-.96-3.13-1.44-5.56-1.44-2.82,0-4.91.61-6.28,1.82-1.38,1.22-2.06,2.46-2.06,3.74h15.25Z"/>
      <path class="cls-1" d="M423.83,73.95c-11.64,0-17.46-8.57-17.46-25.71,0-7.42,1.44-13.35,4.32-17.79,2.88-4.44,7.19-6.67,12.95-6.67,3.13,0,5.67.64,7.62,1.92,1.95,1.28,3.48,3.02,4.6,5.23,1.12,2.21,1.93,4.75,2.45,7.62l.29-.1V9.4c0-2.62.78-4.84,2.35-6.67,1.57-1.82,3.85-2.73,6.86-2.73s5.13.91,6.57,2.73c1.44,1.82,2.16,4.11,2.16,6.86v43.16c0,2.17.18,4.17.53,5.99.35,1.82.62,3.63.82,5.42.19,2.43-.3,4.52-1.49,6.28-1.18,1.76-3.28,2.89-6.28,3.41-3.9.64-6.79-.03-8.68-2.01-1.89-1.98-2.83-4.92-2.83-8.82v-3.55h-1.82c0,4.67-1.17,8.25-3.5,10.74-2.33,2.49-5.48,3.74-9.45,3.74ZM422.39,47.38c0,1.98.61,3.45,1.82,4.41,1.21.96,3.39,1.44,6.52,1.44s5.4-.48,6.62-1.44c1.21-.96,1.82-2.43,1.82-4.41s-.59-3.53-1.77-4.46c-1.18-.93-3.37-1.39-6.57-1.39s-5.4.46-6.62,1.39c-1.21.93-1.82,2.41-1.82,4.46Z"/>
    </g>
  </g>
</svg>