<?xml version="1.0" encoding="UTF-8"?>
<svg id="Layer_2" data-name="Layer 2" xmlns="http://www.w3.org/2000/svg" viewBox="0 0 225.74 78.08">
  <defs>
    <style>
      .cls-1 {
        fill: #FF0081;
        stroke-width: 0px;
      }
    </style>
  </defs>
  <g id="Layer_1-2" data-name="Layer 1">
    <g>
      <path class="cls-1" d="M4.37,33.56c-1.38,0-2.37-.21-2.98-.62-.61-.42-.99-.96-1.15-1.63-.16-.67-.24-1.39-.24-2.16V4.32c0-.7.06-1.39.19-2.06.13-.67.5-1.22,1.1-1.66C1.9.17,2.94-.03,4.42,0h8.26C14.94,0,17.09.43,19.1,1.3c2.02.86,3.8,2.06,5.35,3.58,1.55,1.52,2.77,3.29,3.65,5.3.88,2.02,1.32,4.16,1.32,6.43s-.44,4.53-1.32,6.58c-.88,2.05-2.1,3.85-3.65,5.4-1.55,1.55-3.34,2.77-5.38,3.65-2.03.88-4.22,1.32-6.55,1.32H4.37ZM8.78,24.77h3.89c1.44,0,2.77-.36,3.98-1.08,1.22-.72,2.18-1.68,2.9-2.88.72-1.2,1.08-2.54,1.08-4.01s-.36-2.82-1.08-4.03c-.72-1.22-1.69-2.18-2.9-2.9-1.22-.72-2.56-1.08-4.03-1.08h-3.84v15.98Z"/>
      <path class="cls-1" d="M43.1,34.03c-1.47,0-2.96-.3-4.46-.89-1.5-.59-2.89-1.44-4.15-2.54-1.26-1.1-2.27-2.43-3.02-3.98-.75-1.55-1.13-3.29-1.13-5.21,0-1.76.34-3.41,1.01-4.94.67-1.54,1.59-2.89,2.76-4.06,1.17-1.17,2.51-2.09,4.03-2.76,1.52-.67,3.14-1.01,4.87-1.01,2.37,0,4.51.57,6.43,1.7s3.46,2.66,4.61,4.58c1.15,1.92,1.73,4.06,1.73,6.43,0,2.02-.38,3.81-1.15,5.38-.77,1.57-1.78,2.9-3.02,3.98s-2.62,1.91-4.1,2.47-2.95.84-4.39.84ZM43.01,25.25c.48,0,1.03-.12,1.66-.36s1.17-.65,1.63-1.22c.46-.58.7-1.36.7-2.35,0-.8-.17-1.49-.5-2.06-.34-.58-.81-1.02-1.42-1.34-.61-.32-1.31-.48-2.11-.48-.7,0-1.34.17-1.92.5s-1.04.8-1.39,1.39c-.35.59-.53,1.27-.53,2.04,0,.96.22,1.73.67,2.3.45.58.98.98,1.58,1.22.61.24,1.15.36,1.63.36Z"/>
      <path class="cls-1" d="M61.78,33.56c-1.44,0-2.46-.22-3.07-.65-.61-.43-.97-.98-1.08-1.66-.11-.67-.17-1.36-.17-2.06v-15.79c0-.7.06-1.38.19-2.02.13-.64.5-1.16,1.1-1.56.61-.4,1.63-.6,3.07-.6,1.31,0,2.26.17,2.86.5.59.34.97.74,1.13,1.22.16.48.23.92.22,1.32-.02.4,0,.65.07.74l-.38.29c-.03-.48.15-.96.55-1.44.4-.48.93-.92,1.58-1.32.66-.4,1.36-.72,2.11-.96.75-.24,1.46-.36,2.14-.36,1.6,0,3.01.3,4.22.91,1.22.61,2.23,1.46,3.05,2.57.82,1.1,1.43,2.39,1.85,3.86.42,1.47.62,3.07.62,4.8v7.87c0,.7-.06,1.39-.19,2.06-.13.67-.49,1.22-1.08,1.63-.59.42-1.62.62-3.1.62s-2.51-.22-3.12-.65c-.61-.43-.98-.98-1.1-1.66-.13-.67-.19-1.36-.19-2.06v-7.82c0-.74-.14-1.36-.41-1.87-.27-.51-.66-.9-1.15-1.18-.5-.27-1.11-.41-1.85-.41s-1.32.14-1.85.43c-.53.29-.94.69-1.22,1.2s-.43,1.12-.43,1.82v7.87c0,.7-.06,1.39-.19,2.06-.13.67-.49,1.22-1.08,1.63-.59.42-1.62.62-3.1.62Z"/>
      <path class="cls-1" d="M95.09,33.51c-1.54,0-2.97-.3-4.3-.91-1.33-.61-2.49-1.46-3.48-2.57-.99-1.1-1.76-2.39-2.3-3.86-.54-1.47-.82-3.07-.82-4.8v-7.82c0-.74.06-1.43.19-2.09.13-.66.5-1.2,1.1-1.63.61-.43,1.63-.65,3.07-.65s2.5.22,3.1.65c.59.43.95.98,1.08,1.66.13.67.19,1.38.19,2.11v7.78c0,.74.14,1.36.41,1.87.27.51.67.9,1.2,1.18.53.27,1.14.41,1.85.41s1.31-.14,1.82-.43c.51-.29.91-.69,1.2-1.2.29-.51.43-1.12.43-1.82v-7.87c0-.74.06-1.43.19-2.09.13-.66.5-1.19,1.1-1.61s1.63-.62,3.07-.62,2.5.22,3.1.65c.59.43.95.98,1.08,1.66.13.67.19,1.36.19,2.06v15.79c0,.7-.06,1.38-.19,2.02-.13.64-.5,1.17-1.1,1.58s-1.63.62-3.07.62c-1.06,0-1.88-.12-2.47-.36-.59-.24-1.02-.54-1.27-.91-.26-.37-.41-.74-.46-1.1-.05-.37-.07-.68-.07-.94l.82.24c-.51.61-1.02,1.11-1.51,1.51s-1.09.75-1.78,1.06c-.69.3-1.48.46-2.38.46Z"/>
      <path class="cls-1" d="M113.13,9.51h5.62l6.62-.24c.7,0,1.38.06,2.04.19.66.13,1.2.5,1.63,1.1.43.61.65,1.65.65,3.12,0,1.34-.22,2.32-.65,2.93-.43.61-.98.99-1.63,1.15-.66.16-1.35.24-2.09.24l-6.1-.14h-6.29c-1.09-.06-1.84-.42-2.26-1.06-.42-.64-.62-1.7-.62-3.17,0-1.38.26-2.41.77-3.1.51-.69,1.28-1.03,2.3-1.03ZM124.08,33.6c-1.7,0-3.17-.19-4.42-.58-1.25-.38-2.28-.98-3.1-1.78s-1.42-1.81-1.82-3.02c-.4-1.22-.6-2.64-.6-4.27V5.33c0-.74.06-1.42.19-2.04.13-.62.5-1.14,1.1-1.54.61-.4,1.63-.6,3.07-.6s2.42.22,3.02.65c.61.43.98.98,1.1,1.66.13.67.19,1.36.19,2.06v18c0,.35.02.65.07.89.05.24.12.42.22.55.1.13.22.22.38.29.16.06.37.1.62.1.83,0,1.58.06,2.23.19.66.13,1.17.46,1.54,1.01.37.54.55,1.46.55,2.74,0,1.44-.22,2.46-.67,3.07-.45.61-1.01.97-1.68,1.08-.67.11-1.34.17-2.02.17Z"/>
      <path class="cls-1" d="M148.27,34.08c-1.34,0-2.56-.19-3.65-.58s-2.01-.83-2.76-1.34c-.75-.51-1.53-1.15-2.33-1.92-.42-.45-.8-.9-1.15-1.37-.35-.46-.53-1-.53-1.61,0-.51.14-1.03.41-1.56.27-.53.7-1.1,1.27-1.7.54-.58,1.07-1.01,1.58-1.3.51-.29,1.02-.43,1.54-.43.64,0,1.22.19,1.75.58s1,.8,1.42,1.25c.13.1.3.23.53.41.22.18.51.34.86.48.35.14.78.22,1.3.22s.98-.09,1.42-.26c.43-.18.8-.43,1.1-.77.3-.34.54-.74.7-1.2s.24-.98.24-1.56V4.76c0-.74.07-1.47.22-2.21s.53-1.34,1.15-1.82S155.01,0,156.48,0s2.41.22,3,.67c.59.45.96,1.02,1.1,1.7.14.69.22,1.38.22,2.09v17.28c0,1.7-.32,3.29-.96,4.78-.64,1.49-1.54,2.8-2.69,3.94-1.15,1.14-2.49,2.02-4.01,2.66-1.52.64-3.14.96-4.87.96Z"/>
      <path class="cls-1" d="M183.12,33.51c-1.44,0-2.5-.24-3.19-.72-.69-.48-1.02-1.02-.98-1.63h.67c-.16.22-.47.52-.94.89s-1.08.7-1.85,1.01-1.71.46-2.83.46c-1.44,0-2.82-.33-4.15-.98-1.33-.66-2.51-1.56-3.55-2.71-1.04-1.15-1.86-2.46-2.47-3.91-.61-1.46-.91-2.98-.91-4.58s.3-3.07.91-4.51c.61-1.44,1.44-2.73,2.5-3.86,1.06-1.14,2.24-2.03,3.55-2.69,1.31-.66,2.69-.98,4.13-.98,1.09,0,2.01.16,2.76.48.75.32,1.36.67,1.82,1.06.46.38.78.7.94.96h-.53c-.03-.8.3-1.42.98-1.87.69-.45,1.75-.67,3.19-.67s2.46.22,3.05.65c.59.43.95.98,1.08,1.66.13.67.19,1.36.19,2.06v15.6c0,.7-.06,1.39-.19,2.06-.13.67-.49,1.22-1.08,1.63-.59.42-1.62.62-3.1.62ZM175.2,24.82c.61,0,1.16-.16,1.66-.48.5-.32.9-.74,1.2-1.27.3-.53.46-1.1.46-1.7,0-.64-.15-1.22-.46-1.73s-.71-.93-1.22-1.25c-.51-.32-1.09-.48-1.73-.48s-1.22.16-1.75.48c-.53.32-.95.74-1.27,1.27-.32.53-.48,1.11-.48,1.75,0,.61.17,1.17.5,1.68s.78.93,1.32,1.25c.54.32,1.14.48,1.78.48Z"/>
      <path class="cls-1" d="M194.16,33.6c-1.44,0-2.46-.22-3.07-.65-.61-.43-.97-.98-1.08-1.66-.11-.67-.17-1.36-.17-2.06v-15.7c0-.74.06-1.43.19-2.09.13-.66.5-1.19,1.1-1.61.61-.42,1.65-.62,3.12-.62s2.49.28,3.14.84c.66.56.98,1.46.98,2.71l-.82-.24c.48-.67.95-1.23,1.42-1.68.46-.45,1.03-.84,1.7-1.18s1.44-.5,2.3-.5c.99,0,1.9.13,2.74.38.83.26,1.59.65,2.28,1.18.69.53,1.29,1.18,1.8,1.94.35-.42.83-.9,1.44-1.44.61-.54,1.34-1.02,2.18-1.44.85-.42,1.8-.62,2.86-.62,1.89,0,3.5.48,4.82,1.44,1.33.96,2.34,2.35,3.02,4.18.69,1.82,1.03,4.03,1.03,6.62v7.82c0,.7-.06,1.39-.19,2.06-.13.67-.5,1.22-1.1,1.66-.61.43-1.65.65-3.12.65s-2.46-.22-3.07-.67c-.61-.45-.97-1.01-1.08-1.68-.11-.67-.17-1.36-.17-2.06v-7.82c0-.77-.09-1.4-.26-1.9-.18-.5-.43-.87-.77-1.13-.34-.26-.76-.38-1.27-.38-.54,0-.98.11-1.32.34s-.58.58-.72,1.08c-.14.5-.22,1.18-.22,2.04v7.82c0,.7-.06,1.39-.19,2.06-.13.67-.5,1.22-1.1,1.66-.61.43-1.65.65-3.12.65s-2.46-.22-3.07-.67c-.61-.45-.97-1.01-1.08-1.68-.11-.67-.17-1.36-.17-2.06v-7.82c0-.77-.08-1.41-.24-1.92-.16-.51-.41-.89-.74-1.13-.34-.24-.78-.36-1.32-.36-.64,0-1.12.16-1.44.48s-.54.74-.65,1.25c-.11.51-.17,1.07-.17,1.68v7.92c0,.71-.06,1.39-.19,2.06-.13.67-.5,1.22-1.1,1.63-.61.42-1.65.62-3.12.62Z"/>
      <path class="cls-1" d="M80.83,78.08c-1.95,0-3.61-.24-4.97-.72-1.36-.48-2.47-1.05-3.34-1.7-.86-.66-1.52-1.26-1.97-1.8-.45-.54-.72-.88-.82-1.01-.64-.8-1.03-1.52-1.18-2.16-.14-.64-.05-1.28.29-1.92.34-.64.9-1.34,1.7-2.11.74-.7,1.46-1.1,2.16-1.18.7-.08,1.4.07,2.09.46.69.38,1.35.94,1.99,1.68.77.86,1.42,1.45,1.97,1.75.54.3,1.17.46,1.87.46.86,0,1.57-.1,2.11-.31.54-.21.94-.53,1.2-.96.26-.43.38-.98.38-1.66,0-.54-.27-.97-.82-1.27-.54-.3-1.26-.57-2.14-.79-.88-.22-1.86-.47-2.95-.74-1.09-.27-2.16-.63-3.22-1.08-.64-.25-1.26-.58-1.87-.96-.61-.38-1.18-.82-1.7-1.32-.53-.5-.98-1.09-1.37-1.78-.38-.69-.68-1.46-.89-2.33-.21-.86-.31-1.84-.31-2.93,0-1.95.49-3.7,1.46-5.23.98-1.54,2.32-2.75,4.03-3.65,1.71-.9,3.66-1.34,5.83-1.34,1.57,0,2.91.13,4.03.38,1.12.26,2.04.56,2.76.91.72.35,1.27.68,1.66.98.38.3.62.5.72.6,1.06.96,1.63,1.78,1.73,2.47.1.69-.29,1.67-1.15,2.95-.96,1.38-1.9,2.15-2.83,2.33-.93.18-2-.12-3.22-.89-.26-.19-.51-.41-.77-.65-.26-.24-.6-.45-1.03-.62-.43-.18-1.08-.26-1.94-.26-.32,0-.64.06-.96.17-.32.11-.59.26-.82.43-.22.18-.41.39-.55.65-.14.26-.22.53-.22.82,0,.67.26,1.19.77,1.56.51.37,1.19.65,2.04.84.85.19,1.78.38,2.81.58,1.02.19,2.06.45,3.12.77.86.29,1.7.66,2.5,1.1.8.45,1.5,1.03,2.11,1.73.61.7,1.1,1.58,1.46,2.62.37,1.04.55,2.31.55,3.82,0,2.08-.4,3.85-1.2,5.3-.8,1.46-1.83,2.62-3.1,3.5-1.26.88-2.61,1.52-4.03,1.92-1.42.4-2.76.6-4.01.6Z"/>
      <path class="cls-1" d="M96.96,53.51h5.62l6.62-.24c.7,0,1.38.06,2.04.19.66.13,1.2.5,1.63,1.1.43.61.65,1.65.65,3.12,0,1.34-.22,2.32-.65,2.93-.43.61-.98.99-1.63,1.15-.66.16-1.35.24-2.09.24l-6.1-.14h-6.29c-1.09-.06-1.84-.42-2.26-1.06-.42-.64-.62-1.7-.62-3.17,0-1.38.26-2.41.77-3.1.51-.69,1.28-1.03,2.3-1.03ZM107.9,77.6c-1.7,0-3.17-.19-4.42-.58-1.25-.38-2.28-.98-3.1-1.78s-1.42-1.81-1.82-3.02c-.4-1.22-.6-2.64-.6-4.27v-18.62c0-.74.06-1.42.19-2.04.13-.62.5-1.14,1.1-1.54.61-.4,1.63-.6,3.07-.6s2.42.22,3.02.65c.61.43.98.98,1.1,1.66.13.67.19,1.36.19,2.06v18c0,.35.02.65.07.89.05.24.12.42.22.55.1.13.22.22.38.29.16.06.37.1.62.1.83,0,1.58.06,2.23.19.66.13,1.17.46,1.54,1.01.37.54.55,1.46.55,2.74,0,1.44-.22,2.46-.67,3.07-.45.61-1.01.97-1.68,1.08-.67.11-1.34.17-2.02.17Z"/>
      <path class="cls-1" d="M125.9,77.51c-1.54,0-2.97-.3-4.3-.91-1.33-.61-2.49-1.46-3.48-2.57-.99-1.1-1.76-2.39-2.3-3.86-.54-1.47-.82-3.07-.82-4.8v-7.82c0-.74.06-1.43.19-2.09.13-.66.5-1.2,1.1-1.63.61-.43,1.63-.65,3.07-.65s2.5.22,3.1.65c.59.43.95.98,1.08,1.66.13.67.19,1.38.19,2.11v7.78c0,.74.14,1.36.41,1.87.27.51.67.9,1.2,1.18.53.27,1.14.41,1.85.41s1.31-.14,1.82-.43c.51-.29.91-.69,1.2-1.2.29-.51.43-1.12.43-1.82v-7.87c0-.74.06-1.43.19-2.09.13-.66.5-1.19,1.1-1.61.61-.42,1.63-.62,3.07-.62s2.5.22,3.1.65c.59.43.95.98,1.08,1.66.13.67.19,1.36.19,2.06v15.79c0,.7-.06,1.38-.19,2.02-.13.64-.5,1.17-1.1,1.58-.61.42-1.63.62-3.07.62-1.06,0-1.88-.12-2.47-.36-.59-.24-1.02-.54-1.27-.91-.26-.37-.41-.74-.46-1.1-.05-.37-.07-.68-.07-.94l.82.24c-.51.61-1.02,1.11-1.51,1.51s-1.09.75-1.78,1.06c-.69.3-1.48.46-2.38.46Z"/>
      <path class="cls-1" d="M152.21,77.51c-1.44,0-2.82-.33-4.15-.98-1.33-.66-2.51-1.55-3.55-2.69-1.04-1.14-1.86-2.44-2.47-3.91-.61-1.47-.91-3.01-.91-4.61s.3-3.02.91-4.46c.61-1.44,1.44-2.73,2.5-3.86s2.25-2.04,3.58-2.71c1.33-.67,2.7-1.01,4.1-1.01,1.54,0,2.86.33,3.98.98,1.12.66,2.05,1.54,2.78,2.66.74,1.12,1.29,2.4,1.66,3.84.37,1.44.57,2.93.6,4.46.03,1.57-.13,3.08-.48,4.54-.35,1.46-.9,2.77-1.63,3.94-.74,1.17-1.67,2.1-2.81,2.78-1.14.69-2.5,1.03-4.1,1.03ZM153.36,68.87c.61,0,1.17-.16,1.68-.48.51-.32.93-.74,1.25-1.27.32-.53.48-1.1.48-1.7,0-.64-.15-1.22-.46-1.73-.3-.51-.71-.93-1.22-1.25-.51-.32-1.1-.48-1.78-.48s-1.22.15-1.75.46c-.53.3-.94.72-1.25,1.25-.3.53-.46,1.11-.46,1.75s.16,1.18.48,1.7c.32.53.75.95,1.3,1.27.54.32,1.12.48,1.73.48ZM161.23,77.55c-1.28,0-2.24-.19-2.88-.58-.64-.38-1.07-.99-1.3-1.82v-28.56c0-.7.04-1.39.12-2.06.08-.67.41-1.22.98-1.66.58-.43,1.58-.65,3.02-.65s2.5.21,3.1.62c.59.42.95.95,1.08,1.61.13.66.19,1.35.19,2.09v26.64c0,.71-.06,1.39-.19,2.06-.13.67-.49,1.22-1.08,1.66-.59.43-1.61.65-3.05.65Z"/>
      <path class="cls-1" d="M172.56,50.91c-1.44,0-2.46-.22-3.07-.65-.61-.43-.97-.98-1.08-1.66-.11-.67-.17-1.36-.17-2.06s.06-1.43.19-2.09c.13-.66.5-1.19,1.1-1.61.61-.42,1.63-.62,3.07-.62s2.46.22,3.05.65c.59.43.95.98,1.08,1.66s.19,1.36.19,2.06-.06,1.39-.19,2.06-.49,1.22-1.08,1.63c-.59.42-1.62.62-3.1.62ZM172.56,77.6c-1.44,0-2.46-.22-3.07-.65-.61-.43-.97-.98-1.08-1.66-.11-.67-.17-1.36-.17-2.06v-15.65c0-.7.06-1.38.19-2.04.13-.66.5-1.2,1.1-1.63.61-.43,1.63-.65,3.07-.65s2.46.22,3.05.65c.59.43.95.98,1.08,1.66s.19,1.38.19,2.11v15.6c0,.7-.06,1.39-.19,2.06s-.49,1.22-1.08,1.63c-.59.42-1.62.62-3.1.62Z"/>
      <path class="cls-1" d="M191.61,78.03c-1.47,0-2.96-.3-4.46-.89-1.5-.59-2.89-1.44-4.15-2.54-1.26-1.1-2.27-2.43-3.02-3.98-.75-1.55-1.13-3.29-1.13-5.21,0-1.76.34-3.41,1.01-4.94.67-1.54,1.59-2.89,2.76-4.06,1.17-1.17,2.51-2.09,4.03-2.76,1.52-.67,3.14-1.01,4.87-1.01,2.37,0,4.51.57,6.43,1.7,1.92,1.14,3.46,2.66,4.61,4.58,1.15,1.92,1.73,4.06,1.73,6.43,0,2.02-.38,3.81-1.15,5.38-.77,1.57-1.78,2.9-3.02,3.98-1.25,1.09-2.62,1.91-4.1,2.47s-2.95.84-4.39.84ZM191.52,69.25c.48,0,1.03-.12,1.66-.36.62-.24,1.17-.65,1.63-1.22s.7-1.36.7-2.35c0-.8-.17-1.49-.5-2.06-.34-.58-.81-1.02-1.42-1.34-.61-.32-1.31-.48-2.11-.48-.7,0-1.34.17-1.92.5-.58.34-1.04.8-1.39,1.39-.35.59-.53,1.27-.53,2.04,0,.96.22,1.73.67,2.3.45.58.98.98,1.58,1.22.61.24,1.15.36,1.63.36Z"/>
      <path class="cls-1" d="M215.04,78.03c-.9,0-1.9-.1-3-.31s-2.18-.51-3.22-.91c-1.04-.4-1.9-.87-2.57-1.42-.67-.54-1.01-1.17-1.01-1.87,0-.32.07-.68.22-1.08s.34-.84.6-1.32c.26-.48.58-.99.96-1.54.22-.32.49-.56.79-.72.3-.16.66-.24,1.08-.24.58,0,1.14.12,1.68.36.54.24,1.09.51,1.63.82.54.3,1.11.58,1.7.82.59.24,1.22.36,1.9.36.61,0,1.06-.06,1.37-.19.3-.13.46-.32.46-.58s-.1-.46-.31-.62c-.21-.16-.5-.3-.86-.41-.37-.11-.79-.22-1.27-.31-.48-.1-.99-.21-1.54-.33-.54-.13-1.1-.29-1.68-.48-.74-.22-1.46-.52-2.16-.89-.7-.37-1.34-.86-1.9-1.46-.56-.61-1.01-1.34-1.34-2.21s-.5-1.92-.5-3.17c0-1.66.38-3.06,1.15-4.18s1.9-1.97,3.41-2.54c1.5-.58,3.36-.86,5.57-.86.54,0,1.09.03,1.63.1.54.06,1.1.16,1.66.29.56.13,1.12.3,1.68.5.56.21,1.13.44,1.7.7,1.18.51,1.79,1.22,1.82,2.14.03.91-.3,1.86-1.01,2.86-.38.61-.78,1.06-1.18,1.37-.4.3-.81.46-1.22.46-.51,0-1.07-.14-1.68-.43s-1.25-.58-1.92-.86c-.67-.29-1.34-.43-2.02-.43-.38,0-.71.04-.98.12-.27.08-.47.19-.6.34-.13.14-.19.31-.19.5,0,.35.12.63.36.84.24.21.56.38.96.5.4.13.86.24,1.39.34.53.1,1.1.19,1.7.29.83.13,1.69.33,2.57.6.88.27,1.69.66,2.42,1.18.74.51,1.33,1.22,1.78,2.11.45.9.67,2.06.67,3.5,0,2.72-.9,4.79-2.71,6.19-1.81,1.41-4.47,2.11-7.99,2.11Z"/>
    </g>
  </g>
</svg>